PathFileType	4	(X/Y/Z)	C:/Users/opensim2020/Desktop/walking_exp_matlab/subject02_walking05_straight_03.trc	
DataRate	CameraRate	NumFrames	NumMarkers	Units	OrigDataRate	OrigDataStartFrame	OrigNumFrames	
100.00	100.00	4	42	mm	100.00	2105	224	
Frame#	Time	LFHD			RFHD			LBHD			RBHD			C7			T10			CLAV			STRN			RBAK			LSHO			LUPA			LELB			LFRM			LWRA			LWRB			LFIN			RSHO			RUPA			RELB			RFRM			RWRA			RWRB			RFIN			LASI			RASI			LPSI			RPSI			LTHI			LKNE			LTIB			LANK			LHEE			LTOE			RTHI			RKNE			RTIB			RANK			RHEE			RTOE			*39			*40			*41			
		X1	Y1	Z1	X2	Y2	Z2	X3	Y3	Z3	X4	Y4	Z4	X5	Y5	Z5	X6	Y6	Z6	X7	Y7	Z7	X8	Y8	Z8	X9	Y9	Z9	X10	Y10	Z10	X11	Y11	Z11	X12	Y12	Z12	X13	Y13	Z13	X14	Y14	Z14	X15	Y15	Z15	X16	Y16	Z16	X17	Y17	Z17	X18	Y18	Z18	X19	Y19	Z19	X20	Y20	Z20	X21	Y21	Z21	X22	Y22	Z22	X23	Y23	Z23	X24	Y24	Z24	X25	Y25	Z25	X26	Y26	Z26	X27	Y27	Z27	X28	Y28	Z28	X29	Y29	Z29	X30	Y30	Z30	X31	Y31	Z31	X32	Y32	Z32	X33	Y33	Z33	X34	Y34	Z34	X35	Y35	Z35	X36	Y36	Z36	X37	Y37	Z37	X38	Y38	Z38	X39	Y39	Z39	X40	Y40	Z40	X41	Y41	Z41	X42	Y42	Z42	

29	0.280	-977.32312	-872.64575	1736.91785	-832.14026	-880.06427	1715.39099	-995.71368	-978.71448	1633.51282	-855.94629	-1000.48126	1607.74084	-915.59497	-1024.84692	1502.17285	-912.54388	-1078.69885	1229.58655	-937.75293	-882.41156	1436.77002	-931.41205	-829.63318	1264.52112	-847.53894	-1075.31165	1330.33655	-1099.75269	-967.87793	1479.79541	-1187.07227	-1018.51563	1291.86487	-1206.68262	-1046.32751	1156.67773	-1238.92896	-1060.22302	1027.27368	-1238.46362	-1016.81281	893.00977	-1257.35278	-1068.89978	904.96893	-1270.81580	-1059.87280	839.11938	-736.81384	-927.90015	1469.33289	-653.78619	-920.60309	1273.87646	-648.38763	-875.74384	1130.80737	-650.42761	-816.12000	1024.37793	-693.01050	-743.14191	917.95093	-653.49115	-780.41675	898.65662	-664.96503	-727.38159	850.35455	-1062.64160	-854.18506	972.95892	-805.36987	-861.03320	942.45441	-982.77454	-1065.12634	1014.65027	-869.17273	-1070.95215	1011.32123	-1150.27014	-860.34521	674.39838	-1122.43140	-821.09320	476.26755	-1130.32690	-812.07031	282.37769	-1119.09814	-727.13483	71.89803	-1065.01160	-746.11505	35.30740	-1140.13831	-570.09467	76.28233	-755.61359	-1018.96857	653.32904	-798.06750	-1083.01746	452.83917	-794.36316	-1187.52515	295.15540	-832.14648	-1268.87805	117.14259	-887.80078	-1317.96423	74.10321	-827.11371	-1133.55530	29.42860	-895.01831	-993.17084	1774.31714	-3360.32104	2845.22363	1033.79956			 
30	0.290	-980.33917	-863.81647	1736.37988	-835.35693	-871.35834	1714.76318	-999.08514	-969.83099	1633.02563	-859.07751	-992.49854	1607.35291	-919.07562	-1015.98389	1501.16846	-915.88416	-1068.76624	1228.41394	-941.04376	-873.19635	1436.47302	-934.39575	-819.53784	1264.61499	-851.01074	-1065.85229	1329.10168	-1103.06909	-958.98956	1478.96033	-1190.17908	-1009.15967	1290.78101	-1209.64355	-1036.49219	1155.44849	-1241.61316	-1050.11926	1026.03577	-1240.89026	-1006.38654	891.92371	-1259.80786	-1058.63965	903.67633	-1273.27625	-1049.40674	837.92181	-740.12195	-918.94049	1468.68726	-657.53992	-911.33820	1273.25195	-652.04449	-867.44263	1130.21936	-653.25726	-808.65540	1023.55286	-695.76971	-735.53302	916.63269	-656.46295	-773.16583	897.74133	-667.75476	-720.20959	848.90997	-1065.62488	-843.06146	973.24860	-808.50311	-850.45233	942.04431	-986.46075	-1054.33203	1013.70746	-872.82996	-1060.44678	1010.34412	-1152.45935	-848.95538	673.82208	-1123.96851	-812.31708	474.83322	-1130.76062	-806.08258	280.56647	-1117.87817	-724.61487	68.79025	-1063.94385	-744.59344	32.73328	-1137.68994	-567.35443	71.28281	-757.54211	-1009.33710	653.30499	-798.59967	-1074.56348	453.44046	-794.54126	-1181.59924	297.30020	-831.03699	-1266.53687	120.91216	-886.49414	-1316.35986	79.25777	-826.79822	-1133.26038	29.44816	-898.27136	-984.44659	1773.92151	-3360.30200	2845.19946	1033.88867			 
31	0.300	-980.50409	-852.22845	1735.38098	-838.45245	-862.73138	1714.10706	-1002.52087	-960.85583	1632.52490	-862.88184	-983.31299	1606.68481	-922.61255	-1007.08405	1500.14392	-919.49164	-1058.58801	1227.17468	-944.46527	-863.90753	1436.19897	-937.63965	-809.22260	1264.67664	-854.57941	-1056.77661	1328.07629	-1106.58533	-949.92676	1478.22717	-1193.38110	-999.65796	1289.77393	-1212.65320	-1026.55786	1154.13367	-1244.34216	-1039.84912	1024.80786	-1243.48315	-995.76678	890.80792	-1262.35999	-1048.00330	902.52942	-1275.81799	-1038.65479	836.71301	-743.55762	-910.30304	1468.33362	-661.05560	-902.38403	1273.13757	-655.79407	-858.89587	1129.92029	-657.03345	-800.91815	1022.79742	-698.68823	-728.25165	915.45306	-659.27246	-766.08057	896.89966	-670.47839	-713.31561	847.72528	-1068.70178	-831.65009	973.66364	-811.81268	-839.42328	941.72083	-990.30750	-1043.27856	1012.68579	-876.73315	-1049.46655	1009.18628	-1154.55371	-837.27661	673.24945	-1125.61194	-803.56195	473.36584	-1131.35181	-800.43542	278.73550	-1116.81958	-722.64697	65.67564	-1063.49097	-743.94196	30.57340	-1134.90210	-565.37030	65.88289	-759.44531	-999.29102	653.48621	-799.01556	-1064.53271	453.61652	-794.48206	-1175.03381	299.72418	-829.68188	-1263.65564	125.02531	-885.11407	-1314.29016	84.75077	-826.44800	-1132.85327	29.42938	-901.59833	-975.69818	1773.29883	-3360.28345	2845.20459	1033.89563			 
32	0.310	-986.98840	-846.04364	1735.46863	-841.78619	-853.75079	1713.62976	-1006.09277	-951.80383	1632.06836	-866.42694	-974.30658	1605.97974	-926.32355	-998.12299	1499.18933	-923.22400	-1048.36816	1225.96021	-948.02734	-854.50183	1436.07068	-940.97150	-798.86755	1264.87524	-858.28802	-1046.55823	1326.40198	-1110.08203	-940.75952	1477.46924	-1196.84961	-990.08514	1288.81604	-1215.72717	-1016.29315	1153.14001	-1247.23584	-1029.34241	1023.60205	-1246.11121	-984.95752	889.78888	-1265.05603	-1037.15930	901.13092	-1278.42749	-1027.66846	835.54492	-747.15753	-901.45923	1467.83765	-664.79077	-893.51050	1273.02698	-659.39325	-850.72131	1129.35938	-660.10504	-793.20941	1022.28943	-701.96735	-721.46478	914.34015	-662.11664	-759.02502	896.08588	-673.08087	-706.68805	846.43579	-1072.02454	-819.74396	974.37817	-815.28046	-828.14319	941.59436	-994.38629	-1032.00378	1011.68945	-881.12183	-1037.90063	1007.72327	-1156.56665	-825.21716	672.53046	-1127.73218	-795.05096	471.97504	-1131.74304	-794.86749	276.98181	-1116.54297	-720.22034	63.84962	-1063.40356	-742.52313	31.07122	-1132.62329	-561.77234	58.44876	-761.44244	-988.62659	653.73083	-799.23773	-1054.27979	454.06552	-794.21558	-1167.84717	302.34369	-828.09534	-1260.30347	129.53632	-883.39166	-1311.72034	90.82465	-825.97260	-1132.21509	29.31072	-905.21179	-967.02148	1772.80298	-3360.21753	2845.10791	1033.73206			 
